<?xml version="1.0" encoding="UTF-8" standalone="no"?>
<!DOCTYPE svg PUBLIC "-//W3C//DTD SVG 1.1//EN" "http://www.w3.org/Graphics/SVG/1.1/DTD/svg11.dtd">
<svg width="100%" height="100%" viewBox="0 0 256 256" version="1.1" xmlns="http://www.w3.org/2000/svg" xmlns:xlink="http://www.w3.org/1999/xlink" xml:space="preserve" xmlns:serif="http://www.serif.com/" style="fill-rule:evenodd;clip-rule:evenodd;stroke-linejoin:round;stroke-miterlimit:2;">
    <rect id="adobe_indesign" x="0" y="0" width="256" height="256" style="fill:none;"/>
    <clipPath id="_clip1">
        <rect x="0" y="0" width="256" height="256"/>
    </clipPath>
    <g clip-path="url(#_clip1)">
        <circle cx="128" cy="128" r="128" style="fill:#f36;"/>
        <path d="M106.803,96L149.197,96C155.624,96 160.821,101.197 160.821,107.624L160.821,148.376C160.821,154.803 155.624,160 149.197,160L106.803,160C100.376,160 95.179,154.803 95.179,148.376L95.179,107.624C95.179,101.197 100.376,96 106.803,96Z" style="fill:#f36;fill-rule:nonzero;stroke:#fff;stroke-width:6px;"/>
        <g id="Outlined_Mnemonics_Logos">
            <g id="Id">
                <path d="M119.029,112.738L119.029,140.8C119.029,141.101 118.892,141.238 118.646,141.238L113.285,141.238C113.039,141.238 112.93,141.101 112.93,140.8L112.93,112.738C112.93,112.492 113.067,112.383 113.313,112.383L118.646,112.383C118.81,112.356 118.974,112.465 119.002,112.656C119.029,112.684 119.029,112.711 119.029,112.738Z" style="fill:#fff;fill-rule:nonzero;"/>
                <path d="M134.783,141.675C132.759,141.703 130.735,141.292 128.903,140.444C127.179,139.651 125.757,138.338 124.773,136.725C123.761,135.056 123.268,132.978 123.268,130.489C123.241,128.465 123.761,126.468 124.773,124.718C125.812,122.94 127.316,121.463 129.121,120.479C131.036,119.412 133.333,118.892 136.041,118.892C136.178,118.892 136.369,118.892 136.615,118.92C136.862,118.947 137.135,118.947 137.463,118.974L137.463,110.332C137.463,110.14 137.545,110.031 137.737,110.031L143.289,110.031C143.426,110.003 143.535,110.113 143.562,110.222L143.562,136.315C143.562,136.807 143.59,137.354 143.617,137.956C143.672,138.53 143.699,139.077 143.726,139.542C143.726,139.733 143.644,139.897 143.453,139.979C142.031,140.581 140.526,141.019 138.995,141.292C137.627,141.538 136.205,141.675 134.783,141.675ZM137.463,136.205L137.463,124.171C137.217,124.116 136.971,124.062 136.725,124.034C136.424,124.007 136.123,123.979 135.822,123.979C134.756,123.979 133.689,124.198 132.732,124.691C131.802,125.156 131.009,125.839 130.407,126.715C129.805,127.59 129.504,128.766 129.504,130.188C129.477,131.145 129.641,132.103 129.969,133.005C130.243,133.744 130.653,134.4 131.2,134.947C131.72,135.439 132.349,135.822 133.06,136.041C133.798,136.287 134.564,136.397 135.33,136.397C135.74,136.397 136.123,136.369 136.479,136.342C136.834,136.369 137.162,136.315 137.463,136.205Z" style="fill:#fff;fill-rule:nonzero;"/>
            </g>
        </g>
    </g>
</svg>
