<?xml version="1.0" encoding="UTF-8" standalone="no"?>
<!DOCTYPE svg PUBLIC "-//W3C//DTD SVG 1.1//EN" "http://www.w3.org/Graphics/SVG/1.1/DTD/svg11.dtd">
<svg width="100%" height="100%" viewBox="0 0 256 256" version="1.1" xmlns="http://www.w3.org/2000/svg" xmlns:xlink="http://www.w3.org/1999/xlink" xml:space="preserve" xmlns:serif="http://www.serif.com/" style="fill-rule:evenodd;clip-rule:evenodd;stroke-linejoin:round;stroke-miterlimit:2;">
    <rect id="adobe_illustrator" x="0" y="0" width="256" height="256" style="fill:none;"/>
    <clipPath id="_clip1">
        <rect x="0" y="0" width="256" height="256"/>
    </clipPath>
    <g clip-path="url(#_clip1)">
        <circle cx="128" cy="128" r="128" style="fill:#ff9a00;"/>
        <g id="Surfaces">
            <g id="Drawing_Surface">
                <g id="Outline_no_shadow">
                    <path d="M106.803,96L149.197,96C155.624,96 160.821,101.197 160.821,107.624L160.821,148.376C160.821,154.803 155.624,160 149.197,160L106.803,160C100.376,160 95.179,154.803 95.179,148.376L95.179,107.624C95.179,101.197 100.376,96 106.803,96Z" style="fill:#ff9a00;fill-rule:nonzero;stroke:#fff;stroke-width:6px;"/>
                </g>
            </g>
        </g>
        <g id="Outlined_Mnemonics_Logos">
            <g id="Ai">
                <path d="M126.988,134.4L116.814,134.4L114.735,140.827C114.68,141.074 114.462,141.238 114.215,141.21L109.074,141.21C108.773,141.21 108.691,141.046 108.773,140.718L117.579,115.364C117.662,115.091 117.744,114.79 117.853,114.462C117.962,113.887 118.017,113.285 118.017,112.684C117.99,112.547 118.099,112.41 118.236,112.383L125.32,112.383C125.538,112.383 125.648,112.465 125.675,112.602L135.658,140.773C135.74,141.074 135.658,141.21 135.385,141.21L129.668,141.21C129.477,141.238 129.285,141.101 129.231,140.909L126.988,134.4ZM118.4,128.848L125.347,128.848C125.183,128.274 124.964,127.59 124.718,126.879C124.472,126.14 124.226,125.347 123.979,124.526C123.706,123.679 123.46,122.858 123.186,122.01C122.913,121.162 122.667,120.369 122.448,119.576C122.229,118.81 122.038,118.099 121.846,117.443L121.791,117.443C121.545,118.619 121.244,119.795 120.862,120.971C120.451,122.284 120.041,123.651 119.603,125.019C119.221,126.414 118.81,127.699 118.4,128.848Z" style="fill:#fff;fill-rule:nonzero;"/>
                <path d="M141.621,117.06C140.718,117.087 139.843,116.732 139.186,116.103C138.557,115.419 138.229,114.516 138.256,113.586C138.229,112.656 138.585,111.781 139.241,111.152C139.897,110.523 140.773,110.195 141.675,110.195C142.742,110.195 143.562,110.523 144.164,111.152C144.766,111.809 145.094,112.684 145.067,113.586C145.094,114.516 144.766,115.419 144.109,116.103C143.48,116.759 142.55,117.115 141.621,117.06ZM138.557,140.8L138.557,119.74C138.557,119.467 138.667,119.357 138.913,119.357L144.328,119.357C144.574,119.357 144.684,119.494 144.684,119.74L144.684,140.8C144.684,141.101 144.574,141.238 144.328,141.238L138.968,141.238C138.694,141.238 138.557,141.074 138.557,140.8Z" style="fill:#fff;fill-rule:nonzero;"/>
            </g>
        </g>
    </g>
</svg>
