<?xml version="1.0" encoding="UTF-8" standalone="no"?>
<!DOCTYPE svg PUBLIC "-//W3C//DTD SVG 1.1//EN" "http://www.w3.org/Graphics/SVG/1.1/DTD/svg11.dtd">
<svg width="100%" height="100%" viewBox="0 0 256 256" version="1.1" xmlns="http://www.w3.org/2000/svg" xmlns:xlink="http://www.w3.org/1999/xlink" xml:space="preserve" xmlns:serif="http://www.serif.com/" style="fill-rule:evenodd;clip-rule:evenodd;stroke-linejoin:round;stroke-miterlimit:2;">
    <rect id="adobe_after_effetcs" x="0" y="0" width="256" height="256" style="fill:none;"/>
    <clipPath id="_clip1">
        <rect x="0" y="0" width="256" height="256"/>
    </clipPath>
    <g clip-path="url(#_clip1)">
        <circle cx="128" cy="128" r="128" style="fill:#99f;"/>
        <g id="Surfaces">
            <g id="Video_Audio_Surface">
                <g id="Outline_no_shadow">
                    <path d="M106.803,96L149.197,96C155.624,96 160.821,101.197 160.821,107.624L160.821,148.376C160.821,154.803 155.624,160 149.197,160L106.803,160C100.376,160 95.179,154.803 95.179,148.376L95.179,107.624C95.179,101.197 100.376,96 106.803,96Z" style="fill:#99f;fill-rule:nonzero;stroke:#fff;stroke-width:6px;"/>
                </g>
            </g>
        </g>
        <g id="Outlined_Mnemonics_Logos">
            <g id="Ae">
                <path d="M121.545,134.291L111.371,134.291L109.292,140.745C109.238,140.991 109.019,141.156 108.773,141.128L103.631,141.128C103.33,141.128 103.248,140.964 103.33,140.636L112.137,115.391C112.219,115.118 112.301,114.872 112.41,114.544C112.52,113.969 112.574,113.368 112.574,112.766C112.547,112.629 112.656,112.492 112.793,112.465L119.877,112.465C120.068,112.465 120.205,112.547 120.232,112.684L130.215,140.718C130.297,141.019 130.215,141.156 129.942,141.156L124.226,141.156C124.034,141.183 123.843,141.046 123.788,140.855L121.545,134.291ZM112.957,128.848L119.904,128.848C119.74,128.274 119.521,127.59 119.275,126.879C119.029,126.14 118.783,125.347 118.537,124.526C118.263,123.679 118.017,122.858 117.744,122.01C117.47,121.162 117.224,120.369 117.005,119.576C116.786,118.81 116.595,118.099 116.403,117.443L116.349,117.443C116.103,118.619 115.802,119.795 115.419,120.971C115.009,122.284 114.598,123.651 114.161,125.019C113.805,126.414 113.368,127.699 112.957,128.848Z" style="fill:#fff;fill-rule:nonzero;"/>
                <path d="M146.434,131.774L137.764,131.774C137.874,132.622 138.147,133.47 138.612,134.209C139.104,134.947 139.788,135.521 140.609,135.85C141.703,136.315 142.906,136.561 144.109,136.533C145.067,136.506 146.024,136.424 146.954,136.232C147.802,136.123 148.622,135.904 149.388,135.603C149.525,135.494 149.607,135.549 149.607,135.822L149.607,140.007C149.607,140.116 149.579,140.226 149.552,140.335C149.497,140.417 149.443,140.472 149.361,140.526C148.485,140.909 147.583,141.183 146.626,141.347C145.34,141.593 144.055,141.703 142.742,141.675C140.663,141.675 138.913,141.347 137.491,140.718C136.15,140.144 134.974,139.241 134.044,138.12C133.169,137.053 132.54,135.85 132.157,134.537C131.774,133.251 131.583,131.911 131.583,130.544C131.583,129.067 131.802,127.617 132.267,126.195C132.704,124.827 133.388,123.569 134.318,122.448C135.221,121.354 136.342,120.479 137.627,119.85C138.913,119.221 140.444,119.002 142.195,119.002C143.644,118.974 145.094,119.248 146.434,119.85C147.556,120.342 148.54,121.08 149.306,122.038C150.017,122.968 150.591,124.007 150.947,125.156C151.303,126.25 151.467,127.371 151.467,128.492C151.467,129.149 151.439,129.723 151.412,130.243C151.357,130.762 151.33,131.145 151.303,131.391C151.275,131.583 151.111,131.747 150.92,131.747C150.756,131.747 150.455,131.774 150.017,131.802C149.579,131.856 149.06,131.884 148.431,131.884C147.802,131.884 147.145,131.774 146.434,131.774ZM137.764,127.781L143.535,127.781C144.246,127.781 144.766,127.781 145.094,127.754C145.313,127.726 145.532,127.672 145.723,127.535L145.723,127.262C145.723,126.906 145.668,126.578 145.559,126.25C145.067,124.718 143.617,123.679 142.003,123.733C140.499,123.651 139.077,124.444 138.366,125.812C138.038,126.441 137.846,127.097 137.764,127.781Z" style="fill:#fff;fill-rule:nonzero;"/>
            </g>
        </g>
    </g>
</svg>
