<?xml version="1.0" encoding="UTF-8" standalone="no"?>
<!DOCTYPE svg PUBLIC "-//W3C//DTD SVG 1.1//EN" "http://www.w3.org/Graphics/SVG/1.1/DTD/svg11.dtd">
<svg width="100%" height="100%" viewBox="0 0 256 256" version="1.1" xmlns="http://www.w3.org/2000/svg" xmlns:xlink="http://www.w3.org/1999/xlink" xml:space="preserve" xmlns:serif="http://www.serif.com/" style="fill-rule:evenodd;clip-rule:evenodd;stroke-linejoin:round;stroke-miterlimit:2;">
    <rect id="d3" x="0" y="0" width="256" height="256" style="fill:none;"/>
    <clipPath id="_clip1">
        <rect x="0" y="0" width="256" height="256"/>
    </clipPath>
    <g clip-path="url(#_clip1)">
        <circle cx="128" cy="128" r="128" style="fill:#f5804d;"/>
        <path d="M96,97.667L101.167,97.667C117.807,97.667 131.5,111.36 131.5,128C131.5,144.64 117.807,158.333 101.167,158.333L96,158.333L96,145L101.167,145C110.492,145 118.166,137.326 118.166,128C118.166,118.674 110.492,111 101.167,111L96,111L96,97.667ZM120.167,97.667L141.5,97.667C151.649,97.667 160,106.018 160,116.167C160,120.489 158.485,124.678 155.721,128C158.485,131.322 160,135.511 160,139.833C160,149.982 151.649,158.333 141.5,158.333L120.167,158.333C125.416,155.045 129.723,150.45 132.664,145L141.499,145C144.334,145 146.666,142.667 146.666,139.833C146.666,136.999 144.334,134.667 141.499,134.667L136.333,134.667C137.168,130.262 137.168,125.738 136.333,121.333L141.499,121.333C144.334,121.333 146.666,119.001 146.666,116.167C146.666,113.333 144.334,111 141.499,111L132.664,111C129.723,105.55 125.416,100.955 120.167,97.667Z" style="fill:none;stroke:#fff;stroke-width:4px;"/>
    </g>
</svg>
