<?xml version="1.0" encoding="UTF-8" standalone="no"?>
<!DOCTYPE svg PUBLIC "-//W3C//DTD SVG 1.1//EN" "http://www.w3.org/Graphics/SVG/1.1/DTD/svg11.dtd">
<svg width="100%" height="100%" viewBox="0 0 256 256" version="1.1" xmlns="http://www.w3.org/2000/svg" xmlns:xlink="http://www.w3.org/1999/xlink" xml:space="preserve" xmlns:serif="http://www.serif.com/" style="fill-rule:evenodd;clip-rule:evenodd;stroke-linejoin:round;stroke-miterlimit:2;">
    <rect id="git" x="0" y="0" width="256" height="256" style="fill:none;"/>
    <clipPath id="_clip1">
        <rect x="0" y="0" width="256" height="256"/>
    </clipPath>
    <g clip-path="url(#_clip1)">
        <circle cx="128" cy="128" r="128" style="fill:#dd4c35;"/>
        <path id="path4" d="M166.488,124.438L131.562,89.512C130.598,88.545 129.286,88 127.92,88C126.554,88 125.242,88.545 124.278,89.512L117.024,96.766L126.223,105.965C126.858,105.749 127.523,105.639 128.194,105.639C131.549,105.639 134.31,108.4 134.31,111.755C134.31,112.439 134.195,113.118 133.971,113.764L142.827,122.621C143.467,122.401 144.139,122.288 144.816,122.288C148.175,122.288 150.938,125.052 150.938,128.411C150.938,131.769 148.175,134.533 144.816,134.533C141.458,134.533 138.694,131.769 138.694,128.411C138.694,127.61 138.851,126.817 139.156,126.077L130.885,117.807L130.885,139.567C132.965,140.598 134.286,142.727 134.286,145.048C134.286,148.404 131.525,151.165 128.17,151.165C124.815,151.165 122.053,148.404 122.053,145.048C122.053,142.573 123.556,140.331 125.846,139.39L125.846,117.43C123.55,116.487 122.042,114.24 122.042,111.758C122.042,110.945 122.204,110.14 122.518,109.39L113.461,100.329L89.512,124.286C88.544,125.251 87.999,126.563 87.999,127.93C87.999,129.297 88.544,130.609 89.512,131.574L124.438,166.488C125.402,167.455 126.714,168 128.08,168C129.446,168 130.758,167.455 131.722,166.488L166.488,131.714C167.456,130.749 168.001,129.437 168.001,128.07C168.001,126.703 167.456,125.391 166.488,124.426" style="fill:#dd4c35;fill-rule:nonzero;stroke:#fff;stroke-width:4px;"/>
    </g>
</svg>
