<?xml version="1.0" encoding="UTF-8" standalone="no"?>
<!DOCTYPE svg PUBLIC "-//W3C//DTD SVG 1.1//EN" "http://www.w3.org/Graphics/SVG/1.1/DTD/svg11.dtd">
<svg width="100%" height="100%" viewBox="0 0 256 256" version="1.1" xmlns="http://www.w3.org/2000/svg" xmlns:xlink="http://www.w3.org/1999/xlink" xml:space="preserve" xmlns:serif="http://www.serif.com/" style="fill-rule:evenodd;clip-rule:evenodd;stroke-linejoin:round;stroke-miterlimit:1;">
    <rect id="graphql" x="0" y="0" width="256" height="256" style="fill:none;"/>
    <clipPath id="_clip1">
        <rect x="0" y="0" width="256" height="256"/>
    </clipPath>
    <g clip-path="url(#_clip1)">
        <circle cx="128" cy="128" r="128" style="fill:#e10098;"/>
        <path d="M128.004,94L157.597,111L157.597,145L128.004,162L98.411,145L98.411,111L128.004,94Z" style="fill:#e10098;stroke:#fff;stroke-width:4px;"/>
        <path d="M128.004,92.871L158.004,145.129L98.004,145.129L128.004,92.871Z" style="fill:#e10098;stroke:#fff;stroke-width:4px;"/>
        <path id="path22" d="M162.621,148.006C161.349,150.218 158.984,151.585 156.433,151.585C152.515,151.585 149.292,148.362 149.292,144.445C149.292,140.528 152.515,137.304 156.433,137.304C157.688,137.304 158.921,137.635 160.008,138.264C163.394,140.222 164.572,144.616 162.621,148.006" style="fill:#fff;fill-rule:nonzero;"/>
        <path id="path24" d="M105.725,115.16C104.453,117.371 102.088,118.739 99.537,118.739C95.619,118.739 92.396,115.515 92.396,111.598C92.396,107.681 95.619,104.458 99.537,104.458C100.792,104.458 102.025,104.789 103.112,105.417C106.498,107.376 107.676,111.77 105.725,115.16" style="fill:#fff;fill-rule:nonzero;"/>
        <path id="path26" d="M93.387,148.006C92.758,146.92 92.427,145.686 92.427,144.431C92.427,140.514 95.65,137.29 99.567,137.29C103.485,137.29 106.708,140.514 106.708,144.431C106.708,146.982 105.341,149.347 103.129,150.62C99.739,152.571 95.345,151.392 93.387,148.006" style="fill:#fff;fill-rule:nonzero;"/>
        <path id="path28" d="M150.283,115.16C149.654,114.073 149.323,112.84 149.323,111.584C149.323,107.667 152.546,104.444 156.463,104.444C160.381,104.444 163.604,107.667 163.604,111.584C163.604,114.136 162.236,116.501 160.025,117.773C156.635,119.724 152.241,118.545 150.283,115.16" style="fill:#fff;fill-rule:nonzero;"/>
        <path id="path30" d="M128.004,168C124.087,168 120.863,164.777 120.863,160.859C120.863,156.942 124.087,153.719 128.004,153.719C131.921,153.719 135.145,156.942 135.145,160.859C135.145,160.866 135.145,160.873 135.145,160.879C135.145,164.786 131.93,168 128.024,168C128.017,168 128.011,168 128.004,168" style="fill:#fff;fill-rule:nonzero;"/>
        <path id="path32" d="M128.004,102.281C124.087,102.281 120.863,99.058 120.863,95.141C120.863,91.223 124.087,88 128.004,88C131.921,88 135.145,91.223 135.145,95.141C135.145,95.147 135.145,95.154 135.145,95.161C135.145,99.067 131.93,102.281 128.024,102.281C128.017,102.281 128.011,102.281 128.004,102.281" style="fill:#fff;fill-rule:nonzero;"/>
    </g>
</svg>
