<?xml version="1.0" encoding="UTF-8" standalone="no"?>
<!DOCTYPE svg PUBLIC "-//W3C//DTD SVG 1.1//EN" "http://www.w3.org/Graphics/SVG/1.1/DTD/svg11.dtd">
<svg width="100%" height="100%" viewBox="0 0 256 256" version="1.1" xmlns="http://www.w3.org/2000/svg" xmlns:xlink="http://www.w3.org/1999/xlink" xml:space="preserve" xmlns:serif="http://www.serif.com/" style="fill-rule:evenodd;clip-rule:evenodd;stroke-linejoin:round;stroke-miterlimit:2;">
    <rect id="html" x="0" y="0" width="256" height="256" style="fill:none;"/>
    <clipPath id="_clip1">
        <rect x="0" y="0" width="256" height="256"/>
    </clipPath>
    <g clip-path="url(#_clip1)">
        <circle cx="128" cy="128" r="128" style="fill:#e44f26;"/>
        <path id="polygon4" d="M104.919,153.602L99.785,96L156.215,96L151.074,153.593L127.966,160L104.919,153.602Z" style="fill:#e44f26;fill-rule:nonzero;"/>
        <path d="M99.311,158.273L127.965,166.227L156.681,158.265L162.774,90L93.227,90L99.311,158.273ZM104.919,153.602L99.785,96L156.215,96L151.074,153.593L127.966,160L104.919,153.602Z" style="fill:#fff;"/>
        <path id="polygon8" d="M144.398,122.073L144.224,123.97L142.565,142.569L142.459,143.762L128,147.771L128,147.771L127.968,147.781L113.495,143.762L112.505,132.672L119.598,132.672L120.101,138.306L127.968,140.43L127.975,140.428L127.975,140.427L127.995,140.422L128,140.421L128,140.421L135.856,138.302L136.674,129.138L112.19,129.138L110.455,109.671L110.286,107.774L145.673,107.774L145.504,109.671L145.182,113.253L145.04,114.839L118.007,114.839L118.651,122.073L144.398,122.073Z" style="fill:#fff;fill-rule:nonzero;"/>
    </g>
</svg>
