<?xml version="1.0" encoding="UTF-8" standalone="no"?>
<!DOCTYPE svg PUBLIC "-//W3C//DTD SVG 1.1//EN" "http://www.w3.org/Graphics/SVG/1.1/DTD/svg11.dtd">
<svg width="100%" height="100%" viewBox="0 0 256 256" version="1.1" xmlns="http://www.w3.org/2000/svg" xmlns:xlink="http://www.w3.org/1999/xlink" xml:space="preserve" xmlns:serif="http://www.serif.com/" style="fill-rule:evenodd;clip-rule:evenodd;stroke-linejoin:round;stroke-miterlimit:2;">
    <rect id="javascript" x="0" y="0" width="256" height="256" style="fill:none;"/>
    <clipPath id="_clip1">
        <rect x="0" y="0" width="256" height="256"/>
    </clipPath>
    <g clip-path="url(#_clip1)">
        <circle cx="128" cy="128" r="128" style="fill:#f5de19;"/>
        <rect id="rect4" x="96" y="96" width="64" height="64" style="fill:#f5de19;"/>
        <path d="M166,96C166,92.686 163.314,90 160,90L96,90C92.686,90 90,92.686 90,96L90,160C90,163.314 92.686,166 96,166L160,166C163.314,166 166,163.314 166,160L166,96ZM160,96L96,96L96,160L160,160L160,96Z" style="fill:#fff;"/>
        <path id="path6" d="M138.992,146C140.103,148.257 142.42,149.682 144.935,149.657C147.426,149.657 149.019,148.411 149.019,146.686C149.019,144.629 147.383,143.893 144.64,142.693L143.136,142.048C138.793,140.199 135.913,137.883 135.913,132.987C135.913,128.478 139.342,125.042 144.72,125.042C148.272,124.786 151.65,126.688 153.273,129.858L148.571,132.864C147.946,131.29 146.404,130.261 144.711,130.286C144.624,130.277 144.537,130.273 144.45,130.273C143.024,130.273 141.847,131.438 141.833,132.864C141.833,134.667 142.951,135.399 145.531,136.521L147.035,137.166C152.146,139.358 155.035,141.591 155.035,146.613C155.035,152.027 150.782,154.994 145.07,154.994C140.532,155.283 136.227,152.868 134.11,148.843L138.992,146ZM117.746,146.521C118.69,148.197 119.55,149.614 121.616,149.614C123.591,149.614 124.839,148.841 124.839,145.835L124.839,125.385L130.853,125.385L130.853,145.915C130.853,152.142 127.195,154.976 121.872,154.976C118.029,155.186 114.432,152.999 112.85,149.49L117.746,146.521Z" style="fill:#fff;fill-rule:nonzero;"/>
    </g>
</svg>
