<?xml version="1.0" encoding="UTF-8" standalone="no"?>
<!DOCTYPE svg PUBLIC "-//W3C//DTD SVG 1.1//EN" "http://www.w3.org/Graphics/SVG/1.1/DTD/svg11.dtd">
<svg width="100%" height="100%" viewBox="0 0 256 256" version="1.1" xmlns="http://www.w3.org/2000/svg" xmlns:xlink="http://www.w3.org/1999/xlink" xml:space="preserve" xmlns:serif="http://www.serif.com/" style="fill-rule:evenodd;clip-rule:evenodd;stroke-linejoin:round;stroke-miterlimit:2;">
    <rect id="jest" x="0" y="0" width="256" height="256" style="fill:none;"/>
    <clipPath id="_clip1">
        <rect x="0" y="0" width="256" height="256"/>
    </clipPath>
    <g clip-path="url(#_clip1)">
        <circle cx="128" cy="128" r="128" style="fill:#c63d14;"/>
        <path id="path4" d="M159.676,127.389C159.676,123.304 156.315,119.943 152.231,119.943C151.969,119.943 151.708,119.956 151.448,119.983L161.676,89.817L118.211,89.817L128.425,119.957C128.276,119.957 128.125,119.943 127.974,119.943C127.971,119.943 127.968,119.943 127.965,119.943C123.88,119.943 120.519,123.304 120.519,127.389C120.519,130.625 122.629,133.507 125.714,134.486C124.13,137.213 122.158,139.695 119.859,141.854C116.868,144.714 113.313,146.92 109.422,148.331C104.923,146.199 102.826,140.872 104.665,136.246C104.885,135.731 105.108,135.211 105.319,134.691C108.672,133.902 111.06,130.885 111.06,127.441C111.06,123.355 107.698,119.993 103.612,119.993C99.526,119.993 96.163,123.355 96.163,127.441C96.163,129.873 97.354,132.157 99.348,133.549C96.971,137.858 95.157,142.455 93.951,147.226C92.939,153.326 93.951,159.797 99.222,163.457C111.508,171.974 124.848,158.177 138.911,154.711C144.008,153.454 149.602,153.657 154.091,151.057C157.372,149.188 159.656,145.952 160.316,142.234C160.92,138.698 160.062,135.065 157.942,132.171C159.062,130.833 159.675,129.142 159.673,127.397L159.676,127.389ZM135.422,127.429L135.422,127.403C135.426,124.8 134.062,122.377 131.834,121.031L139.959,104.571L148.102,121.183C146.029,122.56 144.782,124.891 144.785,127.38L144.785,127.543L135.422,127.429Z" style="fill:#c63d14;fill-rule:nonzero;"/>
        <path id="path6" d="M161.496,127.389C161.49,122.953 158.304,119.111 153.945,118.286L164.213,88L115.676,88L125.962,118.346C121.746,119.288 118.722,123.062 118.722,127.383C118.722,130.585 120.383,133.568 123.105,135.254C121.813,137.174 120.31,138.943 118.625,140.529C116.016,143.024 112.951,144.994 109.596,146.329C106.357,144.448 104.97,140.437 106.356,136.957L106.471,136.691L106.682,136.191C110.405,134.901 112.916,131.372 112.916,127.432C112.916,122.345 108.731,118.16 103.645,118.16C98.559,118.16 94.374,122.345 94.374,127.432C94.374,129.914 95.371,132.295 97.139,134.037C96.831,134.697 96.505,135.366 96.171,136.054C94.318,139.46 92.971,143.118 92.171,146.911C90.842,154.911 92.985,161.32 98.202,164.934C101.002,166.937 104.362,168.009 107.805,168C113.896,168 120.059,164.94 126.091,161.946C130.305,159.654 134.751,157.817 139.354,156.466C141.002,156.06 142.699,155.814 144.496,155.554C148.158,155.262 151.728,154.264 155.011,152.617C158.756,150.478 161.362,146.779 162.116,142.531C162.723,138.966 162.022,135.298 160.142,132.209C161.031,130.757 161.501,129.088 161.499,127.386L161.496,127.389ZM157.859,127.389C157.859,130.476 155.318,133.017 152.231,133.017C149.143,133.017 146.602,130.476 146.602,127.389C146.602,124.301 149.143,121.76 152.231,121.76C155.317,121.763 157.856,124.302 157.859,127.389ZM159.136,91.637L150.068,118.38C149.679,118.474 149.298,118.593 148.925,118.737L139.968,100.451L130.982,118.629C130.591,118.493 130.191,118.384 129.785,118.303L120.748,91.637L159.136,91.637ZM127.974,121.76C131.061,121.76 133.602,124.301 133.602,127.389C133.602,130.476 131.061,133.017 127.974,133.017C124.886,133.017 122.345,130.476 122.345,127.389C122.348,124.302 124.887,121.763 127.974,121.76ZM103.625,121.814C106.712,121.816 109.251,124.356 109.251,127.443C109.251,130.531 106.71,133.071 103.622,133.071C100.534,133.071 97.994,130.531 97.994,127.443C97.994,127.438 97.994,127.433 97.994,127.429C97.997,124.342 100.536,121.803 103.622,121.8L103.625,121.814ZM158.531,141.911C157.959,145.098 155.999,147.87 153.185,149.471C150.3,150.872 147.175,151.715 143.976,151.954C142.171,152.214 140.305,152.483 138.479,152.934C133.619,154.342 128.925,156.27 124.479,158.686C115.439,163.174 107.622,167.051 100.274,161.951C94.882,158.214 95.131,151.3 95.759,147.511C96.499,144.064 97.733,140.741 99.422,137.646C99.685,137.106 99.942,136.574 100.194,136.049C100.961,136.355 101.766,136.557 102.588,136.649C101.093,141.929 103.64,147.575 108.588,149.949L109.288,150.309L110.028,150.046C114.155,148.556 117.927,146.22 121.099,143.189C123.195,141.217 125.036,138.991 126.579,136.563C127.04,136.633 127.506,136.668 127.972,136.668C133.052,136.668 137.232,132.488 137.232,127.408C137.232,124.764 136.099,122.242 134.122,120.486L139.945,108.711L145.828,120.711C144.018,122.456 142.994,124.864 142.994,127.377C142.994,132.455 147.173,136.634 152.252,136.634C154.129,136.634 155.962,136.063 157.508,134.997C158.569,137.138 158.924,139.562 158.522,141.917L158.531,141.911Z" style="fill:#fff;fill-rule:nonzero;"/>
    </g>
</svg>
