<?xml version="1.0" encoding="UTF-8" standalone="no"?>
<!DOCTYPE svg PUBLIC "-//W3C//DTD SVG 1.1//EN" "http://www.w3.org/Graphics/SVG/1.1/DTD/svg11.dtd">
<svg width="100%" height="100%" viewBox="0 0 256 256" version="1.1" xmlns="http://www.w3.org/2000/svg" xmlns:xlink="http://www.w3.org/1999/xlink" xml:space="preserve" xmlns:serif="http://www.serif.com/" style="fill-rule:evenodd;clip-rule:evenodd;stroke-linejoin:round;stroke-miterlimit:2;">
    <rect id="nodejs" x="0" y="0" width="256" height="256" style="fill:none;"/>
    <clipPath id="_clip1">
        <rect x="0" y="0" width="256" height="256"/>
    </clipPath>
    <g clip-path="url(#_clip1)">
        <circle cx="128" cy="128" r="128" style="fill:#429744;"/>
        <path id="path4" d="M128,168C126.921,168 125.86,167.717 124.926,167.177L115.143,161.386C113.683,160.568 114.394,160.28 114.877,160.111C116.43,159.632 117.916,158.96 119.303,158.111C119.538,158.002 119.814,158.023 120.031,158.165L127.549,162.631C127.833,162.782 128.173,162.782 128.457,162.631L157.772,145.711C158.051,145.544 158.222,145.242 158.221,144.917L158.221,111.07C158.221,110.74 158.048,110.433 157.766,110.261L128.451,93.355C128.171,93.197 127.827,93.197 127.546,93.355L98.248,110.267C97.964,110.435 97.788,110.74 97.785,111.07L97.785,144.902C97.786,145.227 97.962,145.527 98.245,145.685L106.285,150.325C110.642,152.502 113.311,149.937 113.311,147.36L113.311,113.956C113.311,113.486 113.698,113.099 114.168,113.099L117.883,113.099C118.353,113.099 118.74,113.486 118.74,113.956L118.74,147.362C118.74,153.177 115.574,156.505 110.06,156.505C107.681,156.547 105.339,155.911 103.308,154.671L95.602,150.251C93.701,149.144 92.527,147.103 92.528,144.902L92.528,111.07C92.522,108.866 93.696,106.82 95.602,105.713L124.92,88.787C126.837,87.738 129.163,87.738 131.08,88.787L160.395,105.713C162.296,106.818 163.471,108.857 163.472,111.056L163.472,144.902C163.469,147.102 162.295,149.142 160.395,150.251L131.08,167.177C130.144,167.717 129.081,168.001 128,168Z" style="fill:#fff;fill-rule:nonzero;"/>
        <path id="path6" d="M122.44,133.579C122.44,133.109 122.827,132.722 123.297,132.722L127.089,132.722C127.505,132.723 127.863,133.028 127.931,133.439C128.503,137.299 130.217,139.245 137.969,139.245C144.143,139.245 146.775,137.848 146.775,134.571C146.775,132.682 146.029,131.279 136.432,130.339C128.409,129.545 123.448,127.768 123.448,121.356C123.448,115.442 128.434,111.913 136.792,111.913C146.183,111.913 150.832,115.173 151.421,122.167C151.422,122.189 151.423,122.211 151.423,122.233C151.423,122.699 151.043,123.084 150.578,123.09L146.76,123.09C146.368,123.085 146.027,122.81 145.938,122.427C145.026,118.367 142.795,117.07 136.795,117.07C130.051,117.07 129.269,119.419 129.269,121.179C129.269,123.31 130.194,123.933 139.297,125.136C148.306,126.328 152.586,128.013 152.586,134.345C152.586,140.734 147.26,144.391 137.972,144.391C125.129,144.408 122.44,138.519 122.44,133.579Z" style="fill:#fff;fill-rule:nonzero;"/>
    </g>
</svg>
