<?xml version="1.0" encoding="UTF-8" standalone="no"?>
<!DOCTYPE svg PUBLIC "-//W3C//DTD SVG 1.1//EN" "http://www.w3.org/Graphics/SVG/1.1/DTD/svg11.dtd">
<svg width="100%" height="100%" viewBox="0 0 256 256" version="1.1" xmlns="http://www.w3.org/2000/svg" xmlns:xlink="http://www.w3.org/1999/xlink" xml:space="preserve" xmlns:serif="http://www.serif.com/" style="fill-rule:evenodd;clip-rule:evenodd;stroke-linejoin:round;stroke-miterlimit:2;">
    <rect id="php" x="0" y="0" width="256" height="256" style="fill:none;"/>
    <clipPath id="_clip1">
        <rect x="0" y="0" width="256" height="256"/>
    </clipPath>
    <g clip-path="url(#_clip1)">
        <circle cx="128" cy="128" r="128" style="fill:#8993be;"/>
        <path d="M99.2,120.426C101.335,120.158 103.49,120.754 105.183,122.082C106.278,123.769 106.54,125.869 105.893,127.774C105.612,130.089 104.492,132.222 102.745,133.767C100.639,135.124 98.147,135.761 95.648,135.581L90.848,135.581L93.797,120.457L99.2,120.426ZM80,150.893L87.886,150.893L89.754,141.293L96.498,141.293C98.983,141.356 101.462,141.036 103.849,140.343C105.81,139.696 107.602,138.621 109.095,137.196C111.678,134.873 113.419,131.759 114.046,128.343C115.049,124.896 114.347,121.171 112.16,118.324C109.528,115.716 105.874,114.399 102.183,114.728L87.053,114.728L80,150.893Z" style="fill:#fff;fill-rule:nonzero;"/>
        <path d="M119.83,105.107L127.658,105.107L125.762,114.707L132.725,114.707C135.924,114.372 139.139,115.186 141.794,117.001C143.58,119.031 144.15,121.868 143.289,124.431L140.018,141.262L132.098,141.262L135.211,125.261C135.649,124.025 135.505,122.655 134.82,121.537C133.685,120.723 132.282,120.372 130.898,120.557L124.647,120.557L120.619,141.279L112.774,141.279L119.83,105.107Z" style="fill:#fff;fill-rule:nonzero;"/>
        <path d="M160.706,120.426C162.84,120.158 164.996,120.754 166.689,122.082C167.784,123.769 168.046,125.869 167.399,127.774C167.118,130.089 165.998,132.222 164.251,133.767C162.141,135.127 159.644,135.764 157.14,135.581L152.344,135.581L155.285,120.44L160.706,120.426ZM141.506,150.893L149.392,150.893L151.26,141.293L158.008,141.293C160.497,141.357 162.981,141.037 165.372,140.343C167.333,139.696 169.125,138.621 170.618,137.196C173.194,134.871 174.93,131.757 175.552,128.343C176.554,124.896 175.853,121.171 173.666,118.324C171.033,115.721 167.381,114.407 163.692,114.738L148.538,114.738L141.506,150.893Z" style="fill:#fff;fill-rule:nonzero;"/>
    </g>
</svg>
