<?xml version="1.0" encoding="UTF-8" standalone="no"?>
<!DOCTYPE svg PUBLIC "-//W3C//DTD SVG 1.1//EN" "http://www.w3.org/Graphics/SVG/1.1/DTD/svg11.dtd">
<svg width="100%" height="100%" viewBox="0 0 256 256" version="1.1" xmlns="http://www.w3.org/2000/svg" xmlns:xlink="http://www.w3.org/1999/xlink" xml:space="preserve" xmlns:serif="http://www.serif.com/" style="fill-rule:evenodd;clip-rule:evenodd;stroke-linejoin:round;stroke-miterlimit:2;">
    <rect id="react" x="0" y="0" width="256" height="256" style="fill:none;"/>
    <clipPath id="_clip1">
        <rect x="0" y="0" width="256" height="256"/>
    </clipPath>
    <g clip-path="url(#_clip1)">
        <circle cx="128" cy="128" r="128" style="fill:#00d8ff;"/>
        <circle cx="128" cy="127.902" r="8.024" style="fill:#fff;"/>
        <path id="path6" d="M128,146.299C118.356,146.533 108.735,145.233 99.499,142.448C95.232,141.095 91.253,138.965 87.762,136.164C85.067,134.228 83.35,131.208 83.066,127.902C83.066,122.597 88.895,117.397 98.658,113.995C108.141,110.981 118.05,109.52 128,109.669C137.817,109.532 147.593,110.966 156.957,113.918C161.066,115.228 164.91,117.256 168.312,119.907C170.961,121.753 172.657,124.685 172.934,127.902C172.934,133.416 166.419,139.004 155.923,142.477C146.866,145.171 137.448,146.46 128,146.299ZM128,113.507C118.481,113.38 109.002,114.769 99.92,117.622C90.933,120.758 86.905,125.046 86.905,127.893C86.905,130.871 91.234,135.554 100.741,138.805C109.577,141.456 118.778,142.69 128,142.461C137.039,142.622 146.05,141.399 154.72,138.834C164.589,135.563 169.082,130.874 169.082,127.902C168.755,125.841 167.579,124.009 165.841,122.854C162.797,120.501 159.363,118.704 155.695,117.545C146.738,114.733 137.388,113.37 128,113.507Z" style="fill:#fff;fill-rule:nonzero;"/>
        <path id="path8" d="M109.77,167.922C108.273,167.957 106.793,167.593 105.482,166.87C100.886,164.218 99.294,156.573 101.223,146.415C103.349,136.694 107.035,127.38 112.135,118.835C116.92,110.263 123.045,102.511 130.279,95.874C133.466,92.968 137.144,90.65 141.14,89.028C144.065,87.657 147.453,87.657 150.377,89.028C155.156,91.782 156.738,100.216 154.508,111.042C152.315,120.236 148.726,129.04 143.865,137.146C139.249,145.617 133.316,153.301 126.289,159.911C122.986,162.931 119.152,165.313 114.982,166.937C113.312,167.557 111.55,167.89 109.77,167.922ZM115.46,120.742C110.595,128.924 107.063,137.829 104.997,147.121C103.222,156.477 104.926,162.103 107.404,163.535C109.972,165.021 116.205,163.612 123.773,157C130.481,150.668 136.143,143.312 140.549,135.207C145.206,127.458 148.649,119.041 150.759,110.25C152.858,100.059 151.045,93.82 148.471,92.337C146.521,91.59 144.345,91.694 142.475,92.623C138.918,94.091 135.647,96.175 132.814,98.779C125.903,105.136 120.052,112.557 115.483,120.761L115.46,120.742Z" style="fill:#fff;fill-rule:nonzero;"/>
        <path id="path10" d="M146.221,167.964C141.872,167.964 136.348,165.332 130.597,160.386C123.236,153.689 117.007,145.845 112.151,137.159C107.115,128.732 103.459,119.553 101.322,109.97C100.396,105.755 100.224,101.408 100.815,97.132C101.091,93.923 102.779,90.997 105.417,89.15C110.19,86.386 118.288,89.227 126.552,96.564C133.423,103.054 139.257,110.56 143.852,118.819C148.886,127.049 152.58,136.027 154.797,145.417C155.763,149.787 155.912,154.299 155.236,158.724C154.911,162.024 153.158,165.022 150.441,166.924C149.152,167.639 147.695,167.998 146.221,167.964ZM115.473,135.226C120.131,143.528 126.082,151.035 133.1,157.466C140.318,163.676 146.044,165.011 148.506,163.564C151.074,162.071 152.967,155.979 151.016,146.123C148.878,137.158 145.334,128.589 140.517,120.732C136.133,112.827 130.564,105.64 124.004,99.421C116.224,92.514 109.914,90.97 107.343,92.459C105.724,93.775 104.728,95.711 104.599,97.793C104.089,101.606 104.255,105.48 105.09,109.235C107.145,118.399 110.652,127.176 115.476,135.233L115.473,135.226Z" style="fill:#fff;fill-rule:nonzero;"/>
    </g>
</svg>
