<?xml version="1.0" encoding="UTF-8" standalone="no"?>
<!DOCTYPE svg PUBLIC "-//W3C//DTD SVG 1.1//EN" "http://www.w3.org/Graphics/SVG/1.1/DTD/svg11.dtd">
<svg width="100%" height="100%" viewBox="0 0 256 256" version="1.1" xmlns="http://www.w3.org/2000/svg" xmlns:xlink="http://www.w3.org/1999/xlink" xml:space="preserve" xmlns:serif="http://www.serif.com/" style="fill-rule:evenodd;clip-rule:evenodd;stroke-linejoin:round;stroke-miterlimit:2;">
    <rect id="sass" x="0" y="0" width="256" height="256" style="fill:none;"/>
    <clipPath id="_clip1">
        <rect x="0" y="0" width="256" height="256"/>
    </clipPath>
    <g clip-path="url(#_clip1)">
        <circle cx="128" cy="128" r="128" style="fill:#cd6799;"/>
        <path d="M162.654,133.374C159.64,133.378 156.665,134.067 153.957,135.389C153.109,133.982 152.454,132.467 152.009,130.885C151.754,129.645 151.695,128.372 151.835,127.114C152.128,125.729 152.508,124.364 152.973,123.027C152.956,122.852 152.764,122.026 150.834,121.999C148.903,121.971 147.241,122.366 147.063,122.876C146.727,123.809 146.458,124.765 146.257,125.736C144.66,129.676 142.693,133.457 140.384,137.028C139.091,134.908 138.559,132.409 138.876,129.945C139.169,128.561 139.549,127.196 140.014,125.859C139.997,125.684 139.805,124.858 137.875,124.83C135.945,124.803 134.282,125.197 134.104,125.708C133.926,126.219 133.699,127.422 133.298,128.567C132.897,129.712 128.214,140.175 126.987,142.873C126.356,144.244 125.811,145.362 125.427,146.116C125.409,146.165 125.386,146.212 125.358,146.257C125.016,146.905 124.834,147.258 124.834,147.258L124.834,147.275C124.57,147.748 124.289,148.187 124.148,148.187C123.903,147.208 123.915,146.181 124.183,145.208C124.868,141.577 126.548,135.934 126.531,135.739C126.531,135.633 126.846,134.652 125.444,134.145C124.779,133.829 123.983,133.966 123.463,134.488C123.339,134.488 123.254,134.786 123.254,134.786C123.254,134.786 124.779,128.44 120.343,128.44C116.854,129.142 113.793,131.224 111.858,134.21C110.665,134.858 108.125,136.243 105.406,137.734C104.378,138.314 103.301,138.893 102.304,139.448C102.235,139.38 102.163,139.291 102.095,139.222C96.695,133.47 86.77,129.411 87.199,121.714C87.357,118.91 88.32,111.546 106.256,102.602C121.018,95.327 132.767,97.343 134.8,101.813C137.71,108.197 128.506,120.048 113.253,121.766C109.838,122.459 106.286,121.561 103.61,119.328C102.804,118.451 102.681,118.399 102.383,118.574C101.892,118.838 102.208,119.626 102.383,120.082C103.558,122.209 105.545,123.772 107.888,124.412C113.888,125.709 120.145,125.089 125.773,122.64C135.029,119.064 142.229,109.122 140.117,100.795C137.995,92.345 123.97,89.558 110.696,94.282C102.382,97.079 94.699,101.486 88.087,107.251C80.774,114.09 79.619,120.031 80.092,122.523C81.806,131.361 93.98,137.11 98.851,141.378C98.605,141.519 98.378,141.642 98.186,141.745C95.749,142.955 86.458,147.813 84.131,152.949C81.501,158.777 84.552,162.942 86.568,163.504C92.779,164.991 99.29,162.354 102.715,156.963C105.608,152.529 106.15,146.948 104.165,142.04C104.149,142.001 104.125,141.965 104.097,141.934L106.006,140.813C107.251,140.076 108.478,139.394 109.53,138.831C108.817,140.89 108.398,143.039 108.286,145.215C108.044,148.549 109.065,151.854 111.145,154.471C111.784,155.021 112.618,155.293 113.459,155.225C115.516,155.225 116.459,153.511 117.491,151.475C118.752,148.986 119.89,146.092 119.89,146.092C119.89,146.092 118.471,153.912 122.328,153.912C123.73,153.912 125.149,152.088 125.784,151.169L125.784,151.187C125.784,151.187 125.818,151.135 125.89,151.012L126.116,150.645L126.116,150.611C126.678,149.63 127.94,147.402 129.815,143.703C132.235,138.934 134.567,132.973 134.567,132.973C134.792,134.283 135.102,135.577 135.496,136.846C136.06,138.385 136.728,139.885 137.494,141.334C136.932,142.122 136.582,142.561 136.582,142.561L136.6,142.578C136.144,143.175 135.653,143.823 135.108,144.454C133.487,146.237 131.982,148.123 130.604,150.1C130.181,150.785 130.367,151.693 131.025,152.157C131.747,152.532 132.57,152.668 133.374,152.544C134.585,152.476 135.777,152.203 136.898,151.739C137.981,151.357 139.003,150.82 139.932,150.144C141.876,148.797 142.982,146.527 142.842,144.166C142.735,142.701 142.361,141.269 141.739,139.939C141.913,139.692 142.081,139.448 142.246,139.202C144.195,136.292 145.952,133.259 147.505,130.12C147.73,131.43 148.04,132.724 148.434,133.994C148.9,135.324 149.473,136.614 150.148,137.851C147.906,139.576 146.139,141.844 145.016,144.44C143.912,147.632 144.769,149.068 146.387,149.401C147.273,149.462 148.158,149.28 148.948,148.876C150.11,148.494 151.204,147.932 152.191,147.21C154.303,145.964 155.649,143.732 155.767,141.283C155.689,140.078 155.417,138.893 154.961,137.775C157.92,136.62 161.128,136.251 164.272,136.706C172.617,137.686 174.265,142.894 173.95,145.088C173.651,146.661 172.685,148.029 171.303,148.838C170.724,149.205 170.532,149.329 170.584,149.593C170.652,149.98 170.926,149.959 171.423,149.891C173.992,149.092 175.814,146.781 175.99,144.097C176.254,138.955 171.345,133.315 162.664,133.367L162.654,133.374ZM98.272,155.067C95.502,158.084 91.645,159.222 89.979,158.259C88.19,157.231 88.892,152.774 92.293,149.579C94.311,147.763 96.491,146.137 98.807,144.721C99.211,144.474 99.808,144.125 100.521,143.693L100.713,143.586L101.135,143.322C102.37,147.462 101.274,151.961 98.272,155.067ZM118.433,141.355C117.47,143.703 115.454,149.719 114.227,149.383C113.175,149.102 112.513,144.543 114.018,140.038C114.778,137.87 115.885,135.839 117.295,134.025C118.804,132.342 120.47,131.779 120.871,132.465C120.505,135.533 119.683,138.529 118.433,141.355ZM135.071,149.315C134.666,149.524 134.282,149.658 134.107,149.562C133.984,149.493 134.282,149.219 134.282,149.219C134.282,149.219 136.37,146.973 137.193,145.959C137.666,145.362 138.221,144.663 138.825,143.871L138.825,144.097C138.825,146.778 136.229,148.585 135.074,149.322L135.071,149.315ZM147.906,146.387C147.608,146.178 147.659,145.475 148.66,143.285C149.356,141.878 150.329,140.625 151.519,139.603C151.702,140.122 151.797,140.667 151.8,141.217C151.828,143.618 150.223,145.751 147.909,146.391L147.906,146.387Z" style="fill:#fff;fill-rule:nonzero;"/>
    </g>
</svg>
