<?xml version="1.0" encoding="UTF-8" standalone="no"?>
<!DOCTYPE svg PUBLIC "-//W3C//DTD SVG 1.1//EN" "http://www.w3.org/Graphics/SVG/1.1/DTD/svg11.dtd">
<svg width="100%" height="100%" viewBox="0 0 256 256" version="1.1" xmlns="http://www.w3.org/2000/svg" xmlns:xlink="http://www.w3.org/1999/xlink" xml:space="preserve" xmlns:serif="http://www.serif.com/" style="fill-rule:evenodd;clip-rule:evenodd;stroke-linejoin:round;stroke-miterlimit:2;">
    <rect id="stylus" x="0" y="0" width="256" height="256" style="fill:none;"/>
    <clipPath id="_clip1">
        <rect x="0" y="0" width="256" height="256"/>
    </clipPath>
    <g clip-path="url(#_clip1)">
        <circle cx="128" cy="128" r="128" style="fill:#c2c2c2;"/>
        <path id="path4" d="M89.257,147.101C92.161,143.625 92.504,140.038 90.253,133.374C88.829,129.159 86.465,125.915 88.201,123.291C90.053,120.492 93.98,123.207 90.709,126.935L91.365,127.391C95.296,127.847 97.232,122.463 94.296,120.928C86.549,116.884 79.774,124.659 82.762,133.658C84.041,137.474 85.837,141.517 84.385,144.737C83.502,147.031 81.5,148.717 79.09,149.197C75.702,149.369 77.95,141.597 81.854,139.658C82.194,139.486 82.678,139.258 82.226,138.69C78.42,138.003 74.601,139.983 72.971,143.489C68.243,152.48 81.938,155.812 89.257,147.101Z" style="fill:#fff;fill-rule:nonzero;"/>
        <path id="path6" d="M173.836,120.56C174.948,123.295 176.636,125.999 175.632,128.391C174.808,130.443 173.724,131.294 172.528,131.494C170.848,131.778 171.304,126.511 174.18,124.943C174.436,124.799 174.808,124.119 174.464,123.719C171.606,123.36 168.831,124.929 167.665,127.563C164.465,134.31 174.956,136.162 180.111,129.527C182.163,126.879 182.247,124.259 180.283,119.504C179.031,116.484 177.124,114.236 178.319,112.24C179.599,110.133 182.675,111.956 180.371,114.776L180.883,115.06C183.875,115.232 185.099,111.245 182.819,110.261C182.023,109.974 181.183,109.828 180.338,109.828C176.314,109.828 173.002,113.139 173.002,117.163C173.002,118.346 173.288,119.511 173.836,120.56Z" style="fill:#fff;fill-rule:nonzero;"/>
        <path id="path8" d="M135.792,113.352C133.712,111.7 127.877,114.464 126.225,118.552C124.269,124.289 121.519,129.724 118.054,134.698C114.854,138.202 114.55,135.498 114.854,133.474C116.424,126.785 119.108,120.407 122.793,114.608C121.853,113.212 115.702,113.408 111.43,120.048C109.831,122.555 106.191,130.898 102.147,137.478C101.264,138.902 100.148,137.906 101.008,134.574C102.931,126.822 105.435,119.225 108.499,111.848C117.61,109.934 126.874,108.838 136.18,108.573C137.232,108.289 137.944,107.349 136.18,107.293C127.36,107.259 118.548,107.848 109.811,109.057C111.059,106.024 113.046,103.351 115.59,101.282C112.295,99.812 108.378,101.056 106.535,104.157C105.313,106.018 104.218,107.96 103.259,109.969C97.866,110.668 92.541,111.822 87.341,113.416C84.209,114.616 84.541,118.4 86.457,117.688C91.447,115.903 96.545,114.434 101.72,113.288C98.49,120.599 95.991,128.211 94.26,136.014C92.496,145.981 98.66,145.925 101.692,142.013C104.967,137.714 111.802,122.591 112.854,120.995C113.166,120.456 113.594,120.74 113.366,121.223C105.735,136.458 106.391,142.353 112.566,141.045C116.253,139.395 119.345,136.651 121.421,133.186C121.677,132.586 122.221,132.646 122.105,132.902C117.266,145.461 111.115,155.628 106.983,158.816C103.223,161.691 100.432,155.456 113.73,146.513C115.694,145.173 114.782,143.353 112.562,143.977C100.219,146.524 88.358,151.012 77.422,157.276C76.766,157.732 76.17,158.1 76.198,159.04C76.226,159.579 77.166,159.379 77.622,159.096C87.098,153.429 97.525,149.533 108.395,147.597C108.538,147.663 108.701,147.673 108.851,147.625C109.335,147.513 109.307,147.769 108.995,147.965C108.283,148.365 107.571,148.733 107.395,148.789C100.332,151.552 96.06,157.644 97.572,160.747C98.852,163.423 105.775,162.455 109.047,160.691C117.078,156.336 122.917,147.793 126.901,136.002C130.393,125.543 134.764,113.696 135.792,113.352Z" style="fill:#fff;fill-rule:nonzero;"/>
        <path id="path10" d="M182.467,137.474C164.471,136.242 146.39,137.546 128.757,141.345C125.053,142.313 126.081,144.277 127.957,143.909C127.985,143.909 128.781,143.709 128.813,143.709C145.174,140.96 161.851,140.634 178.307,142.741C180.043,143.057 185.255,137.846 182.467,137.474Z" style="fill:#fff;fill-rule:nonzero;"/>
        <path id="path12" d="M139.436,135.938C143.079,134.114 148.491,122.839 152.05,116.66C152.306,116.204 152.762,116.576 152.506,116.888C143.507,132.378 147.307,134.174 150.882,133.946C155.638,133.662 160.025,126.827 160.993,125.287C161.393,124.687 161.621,125.175 161.393,125.599C161.165,126.311 160.341,127.563 159.569,129.275C158.486,131.694 159.625,132.634 160.565,133.062C162.045,133.774 166.089,133.318 166.717,130.842C162.673,130.758 172.356,111.676 173.352,110.509C169.869,109.203 165.925,110.95 164.553,114.408C160.481,122.467 157.062,128.959 154.926,129.075C150.766,129.303 159.725,111.105 161.161,110.537C160.277,109.257 154.61,109.797 151.45,114.696C150.31,116.46 143.363,128.763 141.655,130.786C138.636,134.386 138.408,131.298 139.256,127.711C139.636,126.177 140.102,124.665 140.651,123.183C141.908,120.359 143.764,117.842 146.091,115.808C154.89,106.041 159.929,98.122 157.938,95.01C156.174,92.247 150.278,93.474 146.491,99.17C139.516,109.621 133.076,123.947 132.252,130.495C131.428,137.042 136.216,137.53 139.436,135.938ZM143.139,116.772C143.451,116.06 143.651,115.86 144.191,114.664C146.848,108.503 150.121,102.626 153.958,97.122C155.638,95.358 158.002,97.75 153.73,104.297C151.281,108.101 148.446,111.642 145.271,114.864L145.271,114.892C144.471,115.776 143.763,116.516 143.447,116.944C143.223,117.228 142.967,117.168 143.139,116.772Z" style="fill:#fff;fill-rule:nonzero;"/>
    </g>
</svg>
