<?xml version="1.0" encoding="UTF-8" standalone="no"?>
<!DOCTYPE svg PUBLIC "-//W3C//DTD SVG 1.1//EN" "http://www.w3.org/Graphics/SVG/1.1/DTD/svg11.dtd">
<svg width="100%" height="100%" viewBox="0 0 256 256" version="1.1" xmlns="http://www.w3.org/2000/svg" xmlns:xlink="http://www.w3.org/1999/xlink" xml:space="preserve" xmlns:serif="http://www.serif.com/" style="fill-rule:evenodd;clip-rule:evenodd;stroke-linejoin:round;stroke-miterlimit:2;">
    <rect id="svelte" x="0" y="0" width="256" height="256" style="fill:none;"/>
    <clipPath id="_clip1">
        <rect x="0" y="0" width="256" height="256"/>
    </clipPath>
    <g clip-path="url(#_clip1)">
        <circle cx="128" cy="128" r="128" style="fill:#ff3e00;"/>
        <path d="M157.963,98.528C150.229,87.917 135.539,84.86 124.214,91.506L104.992,103.393C99.783,106.532 96.156,111.752 95.03,117.728C94.116,122.672 94.925,127.782 97.319,132.203C95.678,134.616 94.556,137.345 94.026,140.215C92.922,146.269 94.373,152.518 98.032,157.466C105.766,168.079 120.454,171.14 131.783,164.5L151.009,152.615C156.216,149.475 159.842,144.256 160.971,138.281C161.89,133.334 161.081,128.217 158.681,123.795C160.324,121.382 161.447,118.653 161.978,115.782C163.081,109.726 161.627,103.475 157.963,98.528" style="fill:#fff;fill-rule:nonzero;stroke:#ff3e00;stroke-width:4px;"/>
        <path d="M122.34,158.453C116.203,160.027 109.692,157.684 105.965,152.561C103.756,149.589 102.877,145.83 103.538,142.187C103.647,141.595 103.799,141.012 103.993,140.442L104.356,139.368L105.341,140.049C107.626,141.677 110.168,142.909 112.862,143.695L113.563,143.904L113.491,144.582C113.409,145.569 113.684,146.553 114.267,147.353C115.386,148.935 117.38,149.663 119.255,149.173C119.669,149.065 120.066,148.896 120.431,148.672L139.605,136.784C140.548,136.212 141.207,135.266 141.416,134.183C141.625,133.091 141.372,131.96 140.718,131.061C139.594,129.515 137.63,128.808 135.779,129.281C135.362,129.389 134.963,129.558 134.597,129.784L127.236,134.317C126.026,135.066 124.71,135.628 123.333,135.983C117.191,137.561 110.673,135.217 106.943,130.088C104.75,127.106 103.888,123.344 104.565,119.705C105.248,116.119 107.423,112.986 110.544,111.091L129.74,99.204C130.95,98.456 132.266,97.895 133.644,97.541C139.786,95.959 146.306,98.303 150.036,103.433C152.244,106.405 153.123,110.164 152.463,113.807C152.354,114.4 152.202,114.983 152.008,115.553L151.644,116.626L150.66,115.948C148.376,114.318 145.833,113.085 143.139,112.302L142.438,112.09L142.509,111.412C142.592,110.425 142.315,109.441 141.731,108.642C140.61,107.094 138.645,106.386 136.794,106.862C136.379,106.969 135.983,107.139 135.618,107.365L116.382,119.213C115.437,119.782 114.78,120.728 114.576,121.812C114.362,122.904 114.615,124.039 115.274,124.937C116.399,126.481 118.362,127.188 120.213,126.714C120.63,126.605 121.028,126.437 121.395,126.213L128.727,121.677C129.936,120.928 131.253,120.367 132.631,120.014C138.773,118.436 145.291,120.779 149.023,125.907C151.225,128.881 152.099,132.639 151.435,136.281C150.757,139.871 148.582,143.009 145.457,144.903L126.263,156.791C125.054,157.54 123.738,158.1 122.36,158.453" style="fill:#ff3e00;fill-rule:nonzero;stroke:#ff3e00;stroke-width:4px;stroke-linejoin:miter;"/>
    </g>
</svg>
