<?xml version="1.0" encoding="UTF-8" standalone="no"?>
<!DOCTYPE svg PUBLIC "-//W3C//DTD SVG 1.1//EN" "http://www.w3.org/Graphics/SVG/1.1/DTD/svg11.dtd">
<svg width="100%" height="100%" viewBox="0 0 256 256" version="1.1" xmlns="http://www.w3.org/2000/svg" xmlns:xlink="http://www.w3.org/1999/xlink" xml:space="preserve" xmlns:serif="http://www.serif.com/" style="fill-rule:evenodd;clip-rule:evenodd;stroke-linejoin:round;stroke-miterlimit:2;">
    <rect id="typescript" x="0" y="0" width="256" height="256" style="fill:none;"/>
    <clipPath id="_clip1">
        <rect x="0" y="0" width="256" height="256"/>
    </clipPath>
    <g clip-path="url(#_clip1)">
        <circle cx="128" cy="128" r="128" style="fill:#007acc;"/>
        <path id="polygon4" d="M96,96L96,160L160,160L160,96L96,96Z" style="fill:#007acc;fill-rule:nonzero;"/>
        <path d="M90,96L90,160C90,163.314 92.686,166 96,166L160,166C163.314,166 166,163.314 166,160L166,96C166,92.686 163.314,90 160,90L96,90C92.686,90 90,92.686 90,96ZM96,96L96,160L160,160L160,96L96,96Z" style="fill:#fff;"/>
        <path id="path6" d="M147.575,125.449C149.107,125.806 150.5,126.608 151.577,127.755C152.17,128.376 152.685,129.067 153.111,129.813C153.131,129.895 150.347,131.762 148.661,132.809C148.599,132.85 148.357,132.581 148.082,132.178C147.458,131.1 146.32,130.415 145.074,130.37C143.134,130.238 141.874,131.255 141.895,132.951C141.878,133.367 141.973,133.781 142.169,134.149C142.597,135.033 143.387,135.561 145.877,136.638C150.448,138.608 152.418,139.909 153.648,141.758C155.033,144.12 155.304,146.978 154.389,149.559C153.126,152.408 150.407,154.354 147.303,154.629C145.682,154.815 144.044,154.798 142.427,154.578C139.951,154.172 137.668,152.983 135.915,151.186C135.254,150.44 134.693,149.61 134.249,148.718C134.436,148.579 134.633,148.453 134.839,148.343C135.122,148.181 136.21,147.561 137.216,146.971L139.045,145.904L139.429,146.469C140.079,147.399 140.908,148.192 141.867,148.8C143.833,149.878 146.247,149.755 148.094,148.485C149.049,147.548 149.2,146.048 148.45,144.939C147.952,144.229 146.937,143.63 144.053,142.379C141.79,141.614 139.731,140.346 138.027,138.672C137.215,137.746 136.615,136.654 136.27,135.472C136.014,134.125 135.976,132.746 136.158,131.387C136.85,128.193 139.481,125.757 142.72,125.312C144.336,125.114 145.973,125.16 147.575,125.449ZM132.551,128.121L132.571,130.743L124.242,130.743L124.242,154.414L118.35,154.414L118.35,130.743L110.018,130.743L110.018,128.174C109.996,127.292 110.019,126.41 110.089,125.531C110.119,125.49 115.189,125.47 121.335,125.481L132.519,125.511L132.551,128.121Z" style="fill:#fff;fill-rule:nonzero;"/>
    </g>
</svg>
