<?xml version="1.0" encoding="UTF-8" standalone="no"?>
<svg
   xmlns:dc="http://purl.org/dc/elements/1.1/"
   xmlns:cc="http://creativecommons.org/ns#"
   xmlns:rdf="http://www.w3.org/1999/02/22-rdf-syntax-ns#"
   xmlns:svg="http://www.w3.org/2000/svg"
   xmlns="http://www.w3.org/2000/svg"
   xmlns:sodipodi="http://sodipodi.sourceforge.net/DTD/sodipodi-0.dtd"
   xmlns:inkscape="http://www.inkscape.org/namespaces/inkscape"
   viewBox="0 0 32 32"
   version="1.1"
   id="svg8"
   sodipodi:docname="file_type_typescript_official.svg"
   inkscape:export-filename="C:\Users\casim\Documents\Code\csmr-db\src\images\code-icons\file_type_typescript_official.png"
   inkscape:export-xdpi="1536"
   inkscape:export-ydpi="1536"
   inkscape:version="0.92.4 (5da689c313, 2019-01-14)">
  <metadata
     id="metadata14">
    <rdf:RDF>
      <cc:Work
         rdf:about="">
        <dc:format>image/svg+xml</dc:format>
        <dc:type
           rdf:resource="http://purl.org/dc/dcmitype/StillImage" />
      </cc:Work>
    </rdf:RDF>
  </metadata>
  <defs
     id="defs12" />
  <sodipodi:namedview
     pagecolor="#ffffff"
     bordercolor="#666666"
     borderopacity="1"
     objecttolerance="10"
     gridtolerance="10"
     guidetolerance="10"
     inkscape:pageopacity="0"
     inkscape:pageshadow="2"
     inkscape:window-width="2560"
     inkscape:window-height="1057"
     id="namedview10"
     showgrid="false"
     inkscape:zoom="7.375"
     inkscape:cx="16"
     inkscape:cy="16"
     inkscape:window-x="412"
     inkscape:window-y="-8"
     inkscape:window-maximized="1"
     inkscape:current-layer="svg8" />
  <title
     id="title2">file_type_typescript_official</title>
  <polygon
     points="2 16 2 30 16 30 30 30 30 16 30 2 16 2 2 2 2 16"
     style="fill:#007acc"
     id="polygon4" />
  <path
     d="M24.564,14.884a3.485,3.485,0,0,1,1.751,1.009,4.611,4.611,0,0,1,.671.9c.009.036-1.209.853-1.947,1.311-.027.018-.133-.1-.253-.276a1.587,1.587,0,0,0-1.316-.791c-.849-.058-1.4.387-1.391,1.129a1.027,1.027,0,0,0,.12.524c.187.387.533.618,1.622,1.089,2,.862,2.862,1.431,3.4,2.24a4.063,4.063,0,0,1,.324,3.413,3.753,3.753,0,0,1-3.1,2.218,8.584,8.584,0,0,1-2.133-.022,5.145,5.145,0,0,1-2.849-1.484,4.947,4.947,0,0,1-.729-1.08,2.092,2.092,0,0,1,.258-.164c.124-.071.6-.342,1.04-.6l.8-.467L21,24.08A3.759,3.759,0,0,0,22.067,25.1a2.6,2.6,0,0,0,2.724-.138,1.217,1.217,0,0,0,.156-1.551c-.218-.311-.662-.573-1.924-1.12a6.93,6.93,0,0,1-2.636-1.622,3.692,3.692,0,0,1-.769-1.4,5.606,5.606,0,0,1-.049-1.787,3.413,3.413,0,0,1,2.871-2.658A7.092,7.092,0,0,1,24.564,14.884Zm-6.573,1.169L18,17.2H14.356V27.556H11.778V17.2H8.133V16.076a11.018,11.018,0,0,1,.031-1.156c.013-.018,2.231-.027,4.92-.022l4.893.013Z"
     style="fill:#fff"
     id="path6" />
</svg>
