<?xml version="1.0" encoding="UTF-8" standalone="no"?>
<svg
   xmlns:dc="http://purl.org/dc/elements/1.1/"
   xmlns:cc="http://creativecommons.org/ns#"
   xmlns:rdf="http://www.w3.org/1999/02/22-rdf-syntax-ns#"
   xmlns:svg="http://www.w3.org/2000/svg"
   xmlns="http://www.w3.org/2000/svg"
   xmlns:sodipodi="http://sodipodi.sourceforge.net/DTD/sodipodi-0.dtd"
   xmlns:inkscape="http://www.inkscape.org/namespaces/inkscape"
   viewBox="0 0 32 32"
   version="1.1"
   id="svg34"
   sodipodi:docname="file_type_graphql.svg"
   inkscape:export-filename="C:\Users\casim\Documents\Code\csmr-db\src\images\code-icons\file_type_graphql.png"
   inkscape:export-xdpi="1536"
   inkscape:export-ydpi="1536"
   inkscape:version="0.92.4 (5da689c313, 2019-01-14)">
  <metadata
     id="metadata40">
    <rdf:RDF>
      <cc:Work
         rdf:about="">
        <dc:format>image/svg+xml</dc:format>
        <dc:type
           rdf:resource="http://purl.org/dc/dcmitype/StillImage" />
      </cc:Work>
    </rdf:RDF>
  </metadata>
  <defs
     id="defs38" />
  <sodipodi:namedview
     pagecolor="#ffffff"
     bordercolor="#666666"
     borderopacity="1"
     objecttolerance="10"
     gridtolerance="10"
     guidetolerance="10"
     inkscape:pageopacity="0"
     inkscape:pageshadow="2"
     inkscape:window-width="2560"
     inkscape:window-height="1057"
     id="namedview36"
     showgrid="false"
     inkscape:zoom="7.375"
     inkscape:cx="16"
     inkscape:cy="16"
     inkscape:window-x="412"
     inkscape:window-y="-8"
     inkscape:window-maximized="1"
     inkscape:current-layer="svg34" />
  <title
     id="title2">file_type_graphql</title>
  <rect
     x="-0.43"
     y="12.534"
     width="22.901"
     height="1.187"
     transform="translate(-5.858 16.107) rotate(-59.999)"
     style="fill:#e10098"
     id="rect4" />
  <rect
     x="4.545"
     y="21.162"
     width="22.902"
     height="1.187"
     style="fill:#e10098"
     id="rect6" />
  <rect
     x="10.43"
     y="18.008"
     width="1.187"
     height="13.227"
     transform="translate(-15.812 21.857) rotate(-59.999)"
     style="fill:#e10098"
     id="rect8" />
  <rect
     x="20.381"
     y="0.771"
     width="1.187"
     height="13.227"
     transform="translate(4.092 21.856) rotate(-59.999)"
     style="fill:#e10098"
     id="rect10" />
  <rect
     x="4.412"
     y="6.787"
     width="13.227"
     height="1.187"
     transform="translate(-2.213 6.502) rotate(-30.001)"
     style="fill:#e10098"
     id="rect12" />
  <rect
     x="20.389"
     y="1.677"
     width="1.187"
     height="22.901"
     transform="translate(-3.753 12.25) rotate(-30.001)"
     style="fill:#e10098"
     id="rect14" />
  <rect
     x="5.454"
     y="9.386"
     width="1.187"
     height="13.228"
     style="fill:#e10098"
     id="rect16" />
  <rect
     x="25.36"
     y="9.386"
     width="1.187"
     height="13.228"
     style="fill:#e10098"
     id="rect18" />
  <rect
     x="15.222"
     y="24.097"
     width="11.504"
     height="1.037"
     transform="translate(-9.498 13.785) rotate(-30.001)"
     style="fill:#e10098"
     id="rect20" />
  <path
     d="M28.12,23a2.5,2.5,0,1,1-.915-3.411A2.5,2.5,0,0,1,28.12,23"
     style="fill:#e10098"
     id="path22" />
  <path
     d="M8.2,11.5a2.5,2.5,0,1,1-.915-3.411A2.5,2.5,0,0,1,8.2,11.5"
     style="fill:#e10098"
     id="path24" />
  <path
     d="M3.88,23a2.5,2.5,0,1,1,3.411.915A2.5,2.5,0,0,1,3.88,23"
     style="fill:#e10098"
     id="path26" />
  <path
     d="M23.8,11.5a2.5,2.5,0,1,1,3.411.915A2.5,2.5,0,0,1,23.8,11.5"
     style="fill:#e10098"
     id="path28" />
  <path
     d="M16,30a2.5,2.5,0,1,1,2.5-2.5A2.493,2.493,0,0,1,16,30"
     style="fill:#e10098"
     id="path30" />
  <path
     d="M16,6.991a2.5,2.5,0,1,1,2.5-2.5,2.493,2.493,0,0,1-2.5,2.5"
     style="fill:#e10098"
     id="path32" />
</svg>
