<?xml version="1.0" encoding="UTF-8" standalone="no"?>
<!-- Created with Inkscape (http://www.inkscape.org/) -->

<svg
   xmlns:dc="http://purl.org/dc/elements/1.1/"
   xmlns:cc="http://creativecommons.org/ns#"
   xmlns:rdf="http://www.w3.org/1999/02/22-rdf-syntax-ns#"
   xmlns:svg="http://www.w3.org/2000/svg"
   xmlns="http://www.w3.org/2000/svg"
   xmlns:sodipodi="http://sodipodi.sourceforge.net/DTD/sodipodi-0.dtd"
   xmlns:inkscape="http://www.inkscape.org/namespaces/inkscape"
   width="1024"
   height="1024"
   viewBox="0 0 270.93333 270.93333"
   version="1.1"
   id="svg3719"
   sodipodi:docname="logo-svg.svg"
   inkscape:version="0.92.4 (5da689c313, 2019-01-14)"
   inkscape:export-filename="F:\Logo\logo.png"
   inkscape:export-xdpi="96"
   inkscape:export-ydpi="96">
  <defs
     id="defs3713">
    <clipPath
       id="clipPath3737"
       clipPathUnits="userSpaceOnUse">
      <path
         inkscape:connector-curvature="0"
         id="path3735"
         d="M 0,1000 H 1000 V 0 H 0 Z" />
    </clipPath>
  </defs>
  <sodipodi:namedview
     id="base"
     pagecolor="#e0e0e0"
     bordercolor="#666666"
     borderopacity="1.0"
     inkscape:pageopacity="0.27843137"
     inkscape:pageshadow="2"
     inkscape:zoom="0.98994949"
     inkscape:cx="689.087"
     inkscape:cy="485.41157"
     inkscape:document-units="mm"
     inkscape:current-layer="layer1"
     showgrid="false"
     units="px"
     width="480px"
     inkscape:window-width="3440"
     inkscape:window-height="1417"
     inkscape:window-x="-8"
     inkscape:window-y="1072"
     inkscape:window-maximized="1" />
  <metadata
     id="metadata3716">
    <rdf:RDF>
      <cc:Work
         rdf:about="">
        <dc:format>image/svg+xml</dc:format>
        <dc:type
           rdf:resource="http://purl.org/dc/dcmitype/StillImage" />
        <dc:title></dc:title>
      </cc:Work>
    </rdf:RDF>
  </metadata>
  <g
     inkscape:groupmode="layer"
     id="layer2"
     inkscape:label="Background"
     style="display:inline">
    <rect
       style="fill:#ffffff;stroke-width:0.26458332"
       id="rect3813"
       width="281.97021"
       height="279.70236"
       x="-1.5119048"
       y="-1.9654762" />
  </g>
  <g
     inkscape:label="Logo"
     inkscape:groupmode="layer"
     id="layer1"
     transform="translate(0,-26.06667)"
     style="display:inline">
    <g
       transform="matrix(0.35277777,0,0,-0.35277777,11.994447,373.2)"
       inkscape:label="LOGO"
       id="g3729"
       inkscape:export-xdpi="96"
       inkscape:export-ydpi="96">
      <g
         id="g3731">
        <path
           style="fill:#000000;fill-opacity:1;fill-rule:nonzero;stroke:none;stroke-width:0.99999994"
           d="M 500,850.00049 C 444.771,850.00049 399.99951,805.22901 399.99951,750 h 0.001 V 600.10694 c -3e-5,-0.0358 -0.001,-0.0712 -0.001,-0.10694 V 536.61914 C 385.2906,545.12797 368.21496,550.00048 350,550.00048 294.77099,550.00048 249.99951,505.229 249.99951,450 c 0,-55.22901 44.77148,-100.00049 100.00049,-100.00049 55.229,0 100.00049,44.77148 100.00049,100.00049 v 63.38086 C 464.7091,504.87148 481.78571,499.99951 500,499.99951 c 55.22901,0 99.99903,44.77149 99.99903,100.00049 0,29.87 -13.0988,56.676 -33.8628,75 20.763,18.324 33.86426,45.13 33.86426,75 0,55.22901 -44.77148,100.00049 -100.00049,100.00049 z m 0,-50.00097 c 27.57,0 49.99952,-22.42951 49.99952,-49.99952 0,-27.57 -22.42952,-49.99951 -49.99952,-49.99951 v -50.00097 c 27.571,0 49.99952,-22.42952 49.99952,-49.99952 0,-27.57 -22.42852,-49.99952 -49.99952,-49.99952 -27.55084,0 -49.96837,22.3987 -49.99951,49.94239 v 0.0571 63.41309 23.17383 63.41308 c 0,27.57001 22.42951,49.99952 49.99951,49.99952 z M 199.99999,550.00048 C 144.77099,550.00048 99.999509,505.229 99.999509,450 c 0,-55.22901 44.771481,-100.00049 100.000481,-100.00049 22.666,0 43.56639,7.54486 60.33838,20.25586 -11.28,12.673 -19.91564,27.75058 -25.03564,44.37158 -9.052,-9.033 -21.53574,-14.62647 -35.30274,-14.62647 -27.57,0 -49.99951,22.42952 -49.99951,49.99952 0,27.57 22.42951,49.99951 49.99951,49.99951 13.767,0 26.25074,-5.59347 35.30274,-14.62647 5.12,16.62101 13.75564,31.69859 25.03564,44.37159 -16.77199,12.711 -37.67238,20.25585 -60.33838,20.25585 z M 350,499.99951 c 27.57,0 49.99951,-22.42951 49.99951,-49.99951 0,-27.57 -22.42951,-49.99952 -49.99951,-49.99952 -27.57,0 -49.99952,22.42952 -49.99952,49.99952 0,27.57 22.42952,49.99951 49.99952,49.99951 z"
           id="path3777"
           inkscape:connector-curvature="0"
           sodipodi:nodetypes="scccscsssscsscssssccssccccsssssccsssccssssss" />
      </g>
    </g>
  </g>
</svg>
