<?xml version="1.0" encoding="UTF-8" standalone="no"?>
<!DOCTYPE svg PUBLIC "-//W3C//DTD SVG 1.1//EN" "http://www.w3.org/Graphics/SVG/1.1/DTD/svg11.dtd">
<svg width="100%" height="100%" viewBox="0 0 256 256" version="1.1"
    xmlns="http://www.w3.org/2000/svg"
    xmlns:xlink="http://www.w3.org/1999/xlink" xml:space="preserve"
    xmlns:serif="http://www.serif.com/" style="fill-rule:evenodd;clip-rule:evenodd;stroke-linecap:round;stroke-linejoin:round;stroke-miterlimit:1.5;">
    <g transform="matrix(1,0,0,1,0,-640)">
        <g id="treshold_shapes_x4_built_bg" transform="matrix(1,0,0,1,0,640)">
            <rect x="0" y="0" width="256" height="256" style="fill:none;"/>
            <clipPath id="_clip1">
                <rect x="0" y="0" width="256" height="256"/>
            </clipPath>
            <g clip-path="url(#_clip1)">
                <g transform="matrix(1,0,0,1,0,-640)">
                    <rect x="0" y="640" width="256" height="256" style="fill:rgb(0,168,255);"/>
                </g>
                <g transform="matrix(1,0,0,1,0,-320)">
                    <path d="M99.143,406.249C104.26,395.454 115.266,388 128,388C145.661,388 160,402.339 160,420C160,423.698 159.371,427.251 158.215,430.555C161.655,431.206 165.046,432.438 168.249,434.287C183.544,443.118 188.792,462.705 179.962,478C173.595,489.028 161.636,494.833 149.729,493.866" style="fill:none;stroke:white;stroke-width:8px;"/>
                </g>
                <g transform="matrix(-0.5,-0.866025,0.866025,-0.5,-48.7839,287.801)">
                    <path d="M19.832,215.582C18.634,212.278 18,208.712 18,205C18,187.339 32.339,173 50,173C67.661,173 82,187.339 82,205C82,220.632 70.767,233.661 55.936,236.427" style="fill:none;stroke:white;stroke-width:8px;"/>
                </g>
            </g>
        </g>
    </g>
</svg>
